<?xml version="1.0" encoding="UTF-8"?>
<svg id="Layer_1" xmlns="http://www.w3.org/2000/svg" version="1.1" xmlns:xlink="http://www.w3.org/1999/xlink" viewBox="0 0 512 512">
  <!-- Generator: Adobe Illustrator 29.5.1, SVG Export Plug-In . SVG Version: 2.1.0 Build 141)  -->
  <defs>
    <style>
      .st0 {
        fill: #fbb841;
      }

      .st1 {
        fill: #6b4831;
      }

      .st2 {
        fill: #1e4488;
      }

      .st3 {
        fill: #217db7;
      }

      .st4 {
        fill: #ea7724;
      }

      .st5 {
        fill: #1767a8;
      }

      .st6 {
        fill: #d4d3d5;
      }

      .st7 {
        fill: #fff;
      }

      .st8 {
        fill: url(#linear-gradient1);
      }

      .st9 {
        fill: #1f3466;
      }

      .st10 {
        fill: none;
      }

      .st11 {
        fill: #987852;
      }

      .st12 {
        fill: #51b848;
      }

      .st13 {
        fill: #2a91c7;
      }

      .st14 {
        fill: #cfe5ed;
      }

      .st15 {
        fill: #7863ab;
      }

      .st16 {
        fill: #eca386;
      }

      .st17 {
        fill: #2972aa;
      }

      .st18 {
        fill: #f6892e;
      }

      .st19 {
        fill: #6fcddf;
      }

      .st20 {
        fill: #fbc2a7;
      }

      .st21 {
        fill: #e54c72;
      }

      .st22 {
        fill: url(#linear-gradient);
      }

      .st23 {
        fill: #fedabb;
      }

      .st24 {
        fill: #82593b;
      }
    </style>
    <linearGradient id="linear-gradient" x1="277.55" y1="-418.24" x2="79.12" y2="-10.74" gradientTransform="translate(0 410.24)" gradientUnits="userSpaceOnUse">
      <stop offset="0" stop-color="#f29e2b"/>
      <stop offset=".31" stop-color="#fccb3c"/>
      <stop offset="1" stop-color="#f19b2b"/>
    </linearGradient>
    <linearGradient id="linear-gradient1" x1="135.34" y1="-221.04" x2="161.48" y2="-190.35" gradientTransform="translate(0 410.24)" gradientUnits="userSpaceOnUse">
      <stop offset="0" stop-color="#2681bc"/>
      <stop offset="1" stop-color="#13569d"/>
    </linearGradient>
  </defs>
  <rect class="st10" x=".88" y="-.89" width="510.4" height="513.62"/>
  <g>
    <path class="st17" d="M364.3,155.69c-1.03-1.76-1.4-1.48-1.6-4.27-2.27-31.04,1.79-64.8-.03-96.12-1.8-8.89-9.46-16.81-18.72-17.14H109.65c-12.2.96-21.15,8.33-24.35,20.16v316.41c.43,6.15,2.98,13.06,7.16,17.6,3.65,3.97,8.76,7.09,14.11,7.51,20.11,1.58,42.89-1.93,62.82.06,1.16.12,4.35.69,5.15,1.34.18.15,3.16,3.15,3.29,3.36,3.63,5.81-1.74,14.27-8.43,14.38-38.67-2.48-95.89,14.42-102.59-40.54V58.95c1.18-18.49,16.61-36.08,35.03-38.63,2.14-.3,2.33,1.31,4.09-.79l240.47.03c16.97,1.88,30.38,14.27,33.9,31.01,2.05,34.03.38,68.47.86,102.64-1.42,7-10.87,9.86-15.73,4.73-.58-.61-.72-1.55-1.14-2.26h.01Z"/>
    <path class="st17" d="M168.44,167.32c.2.12.36,1.31.98,1.77,9.16,6.59,18.47,10.11,29.78,6.97,4.74-1.32,13.98-8.07,17.09-8.13,2.25-.04,10.84,3.24,13.39,4.3,5.22,2.16,15.43,6.77,20.15,10.87,8.53,7.39,11.25,17.35,11.16,28.47-.04,4.25-1.25,9.75-6.44,9.65h-125.81c-8.36-.3-7.01-16.19-5.64-21.87,2.54-10.52,9.32-16.24,18.3-21.29,5.3-2.97,20.1-9.39,24.91-9.6.34-.01.51-2.13,2.13-1.13h0,0Z"/>
    <path class="st17" d="M218.26,85.54c8.06,9.48,4.16,21.92,5.79,32.32.26,1.66,1.58,3.12,2.01,4.8,1.86,7.4-.9,12.39-6.05,17.26-.84.8-2.17.85-2.82,1.67-1.29,1.64-1.9,6.58-2.87,8.72s-5.25,7.21-7.26,8.84c-2.2,1.77-7.31,4.6-10.16,5.29-11.82,2.83-23.45-3.88-28.48-14.8-.98-2.14-1.31-4.96-2.08-6.59s-4.34-3.57-5.81-5.31c-3.64-4.3-4.06-9.94-2.82-15.21.38-1.61,1.68-3.35,1.86-4.84.51-4.43-.72-10.95-.28-15.9,2.5-28.2,41.32-37.01,58.96-16.23h0,0Z"/>
    <path class="st15" d="M454.34,179.86c.18.1.34.84,1,1.18,3.41,1.8,18.17,3.83,19.27,6.01.32.63.48,1.44.25,2.12-.31.94-13.17,3.96-15.53,4.87-23.28,9.03-30.05,29.71-33.09,52.83-2.39.93-2.89,3.28-4.17-.73-2.07-6.52-2.67-14.04-4.67-20.74-4.78-15.95-15.38-27.22-31.23-32.46-2.93-.97-10.67-1.71-12.57-2.86s-1.76-3.94,1.12-4.14c1.85-.12,3-.07,4.9-.1.35,0,.3-1.02.83-1.21,11.84-4.16,17.68-4.77,26.35-14.93,9.41-11.01,12.69-25.93,15.22-39.89.5-1.53,2.88-1.6,3.45,0,.88,5.12,1.99,10.2,3.38,15.21,4.96,17.81,9.01,25.74,25.49,34.84h0Z"/>
    <path class="st17" d="M119.05,249.84l151.52-.15c9.69,1.93,9.63,14.3,1.34,18.12-49.85,1.17-99.96.17-149.91.5-10.42-1.13-12.14-14.21-2.95-18.48h0Z"/>
    <path class="st17" d="M273.14,307.21c-1.57,1.86-4.9,4.24-7.49,4.55H122.6c-11.25-.72-13.3-16.18-1.84-18.64h144.9c6.85-.4,11.89,8.86,7.49,14.09h0Z"/>
    <path class="st15" d="M378.52,243.13c.17.06.2.83.66.97,1.8.53,12.74.86,9.76,5.04-.47.66-12.58,3.66-15.37,5.01-13.67,6.6-19.46,17.56-23.2,31.92-.88,3.38-.72,16.47-6.45,11.38-3.02-11.3-4.14-23.45-11.74-32.85-1.95-2.41-8.32-8.11-10.95-9.48-2.88-1.5-18.71-5.44-18.98-6.42-1.01-3.64,7.52-4.18,10.22-5.17,16.16-5.91,24.88-15.61,29.11-32.74.72-2.89.4-12.13,4.27-12.47,1.04-.1,1.8,1.15,2.17,1.95,2.49,5.25,3.58,14.78,6.17,21.07,5.1,12.36,11.96,17.63,24.3,21.78h.01Z"/>
    <path class="st17" d="M376.7,317.52c.42.36.61,1.23,1.08,1.69,2.5,2.48,3.08,2.05,3.45,6.47,1.23,14.64,1.14,41.17,0,55.88-.82,10.51-8.17,23.05-16.72,29.08-3.12,2.2-12.7,7.44-16.28,7.8-6.53.68-11.94-3.28-11.43-10.22.55-7.55,6.81-7.57,11.95-10.33,8.52-4.59,13.27-12.91,13.98-22.53,1.28-17.18-1.25-35.75.26-53.08,1.61-5.15,9.43-8.38,13.7-4.75h0Z"/>
    <path class="st17" d="M114.48,349.41c-3.4-4.54-.59-11.51,4.3-13.61,30.94-1.13,62.18-.15,93.23-.5,10.44,2.91,9.15,17.66-1.86,18.63h-88.15c-1.21-.13-3.27-.63-4.24-1.31-.18-.13-3.15-3.02-3.28-3.2h0,0Z"/>
    <path class="st17" d="M271.05,109.69c.16-.2,3.48-3.34,3.69-3.46,8.9-5.06,15.73,9.23,21.69,13.25.62.42.89.74,1.75.51,1.65-.44,10.22-10.67,12.13-12.67,4.15-4.35,10.08-9.48,13.92-13.91,2.2-2.54,3.45-5.86,6.86-7.99,8.45-5.28,17.89,4.66,11.92,13.24-3.51,5.05-11.28,10.6-15.14,15.16-5.55,6.56-11.35,13.65-17.2,19.91-4.79,5.13-9.99,11.81-17.57,7.08-5.58-6.77-16.15-13.43-20.99-20.44-1.84-2.67-3.24-7.94-1.06-10.69h0,0Z"/>
    <path class="st17" d="M270.03,400.07c.06,1.48,3.35,1.26,2.68,2.55-.4.77-2.63,1.34-3.55,1.97-4.49,3.11-9.8,8.42-12.49,13.69-.68,1.33-.71,6.59-2.81,6.96s-3.49-7-4.58-8.81c-1.15-1.92-6.2-7.37-8.05-8.78-2.16-1.65-7.31-3.14-7.37-5.59-.01-.61,2.01-.64,2.69-1.1,6.05-4.07,8.76-6.2,12.44-12.89,1.27-2.31,1.83-5.25,2.76-6.99.83-1.54,2.35-1.24,3.22.34,1.23,2.24,1.99,5.31,3.45,7.7,2.67,4.38,7.06,8.64,11.61,10.98h0,0Z"/>
    <path class="st15" d="M427.23,292.77c.35.16.18,1.94,2.68.37.44,4.11-4.38,3.65-7.43,5.24-3.93,2.05-7.25,6.04-9.13,10.05-.89,1.9-2.3,9.02-4.11,8.76-1.54-.22-3.2-7.59-4.07-9.4-2.84-5.91-5.4-7.77-11.22-10.43-1.73-.79-7.56-1.58-4.72-3.91,1.01-.83,5.78-1.86,7.6-2.89,7.46-4.24,9.07-9.59,10.54-17.31,1.93-10.15,4.77,4.6,5.41,6.41,2.89,8.13,7.24,9.95,14.43,13.11h.01Z"/>
    <path class="st17" d="M213.75,423.83c.94,1.88,5.05,6.76,6.9,8.24,1.58,1.26,8.26,4.19,8.29,4.67.13,1.94-2.89,1.98-3.49,2.38-5.26,3.55-9.65,7.94-12.63,13.64-.89,1.69-2.29,8.38-4.95,2.73-2.65-5.65-5.3-11.16-11.18-15.1-1.34-.91-3.77-1.42-4.92-2.08-1.22-.7-.12-2.2.99-2.64.73-.29,1.61.23,2.27-.17,3.49-2.13,8.11-7.67,10.38-11.28,1.73-2.74,2.35-6.57,5.37-8.24.65-.17,2.63,7.18,2.98,7.86h-.02Z"/>
    <path class="st17" d="M324.41,427.21c.22.35.22,2.08.01,2.33s-4.6,1.64-5.9,2.43c-2.96,1.78-5.29,4.19-7.09,7.14-1.67,2.72-2.21,5.96-3.44,8.33-2.45,4.73-4.17-3.12-5.16-5.01-1.45-2.77-3.46-6.52-5.88-8.35-1.5-1.15-8.74-4.27-8.84-4.77-.4-2.08,5.07-3.89,7-5.37,6.06-4.64,6.21-8.81,9.53-14.6,2.69-4.71,4.41,3.36,5.45,5.32,2.16,4.1,4.88,7.83,8.91,10.26,1.25.75,5.25,2.05,5.41,2.31h0,0Z"/>
    <path class="st17" d="M269.54,454.52c.39.24,1.92,4.95,2.45,5.9,4.53,8.07,5.1,7,12.25,11.25,4.75,2.82-2.71,3.57-3.66,5.28-6.59,2.95-8.53,10.65-11.86,16.56-3.38-5.31-5.34-11.5-10.58-15.41-1.9-1.41-7.42-3.15-6.99-5.38.08-.45,6.04-3.16,7.73-4.64,2.25-1.96,4.22-4.68,5.72-7.27,1.26-2.18,2.32-7.92,4.96-6.28h0v-.02Z"/>
    <path class="st17" d="M296.7,343.45c.17.13.74,3.08,1.18,4.08,1.81,4.15,4.53,8.27,8.18,11,2.01,1.5,3.38,1.71,5.32,2.7.56.29,1.01-.16.81,1.08-.3,1.8-4.23,2.81-5.87,4.02-2.26,1.68-5.14,5.2-6.58,7.65-1.7,2.88-2.04,6.78-5.44,7.86-1.31-5.82-4.49-11.55-9.31-15.14-1.77-1.32-5.36-2.42-6.11-3.15-2.53-2.41,2.02-2.72,3.74-3.7,3.4-1.92,6.5-5.46,8.47-8.85.82-1.4,2.95-7.31,3.3-7.52.4-.23,2.06-.26,2.31-.05h-.01Z"/>
    <path class="st15" d="M464.84,227.58c1.78,2.5,2.53,6.87,5.14,10.03,2.61,3.15,4.68,3.38,7.53,5.31,4.22,2.86-1.89,4-4.41,5.92-2.11,1.61-3.76,3.76-5.09,6.04-.95,1.63-2.62,6.57-3.27,7.25-2.64,2.75-2.63-.74-3.13-1.82-2.38-5.1-5.76-10.35-10.58-13.08-2.29-1.3-7.42-.75-2.41-4.12,5.82-3.93,8.18-4.36,11.82-11.37,1.01-1.95,1.73-7.94,4.41-4.17h0,0Z"/>
    <path class="st17" d="M172.79,461.32c.34.22,2.51,5.51,3.77,7.06.68.85,3.39,3.46,4.15,3,.3,1.59,2.22.36,2.03,1.96-.29,2.37-4.82,3.32-6.19,4.94s-2.51,5.94-3.63,7.39c-.42.54-1.06.56-1.59.4-.41-.13-2.86-5.81-4.38-7.39-1.1-1.14-7.31-4.39-6.4-5.64,3.68-.79,7.01-4.36,8.9-7.49.96-1.59,1.32-5.53,3.36-4.23h0Z"/>
  </g>
  <g>
    <g>
      <path class="st4" d="M469.53,252.09c-4.91,1.12-3.28,9.45-7.54,10.43l.63-18.65c3.97-.24,11.13.32,13.19-1.9,1.23.94,4.41,1.26,3.77,3.48-3.95,2.35-6.89,2.82-10.05,6.64h0Z"/>
      <path class="st4" d="M462.62,243.87l-.63,18.65c4.26-.98,2.63-9.31,7.54-10.43-2.49,3-4.73,12.74-7.23,12.01-1.23-.36-3.43-9.17-4.71-11.06-2.72-4.02-5.64-3.98-8.8-6.01.61-5.22,10.11-2.93,13.82-3.16h0Z"/>
      <path class="st0" d="M474.56,241.34c-.99,1.82-10.49,1.53-11,1.26-2.67-1.4,1.84-11.3-4.08-9.48,1-1.67,1.02-7.57,4.08-6.95,1.26.26,3.41,7.89,4.71,9.8,1.55,2.27,4.18,3.73,6.28,5.37h0Z"/>
      <path class="st0" d="M474.56,241.34c.2.16,1.04.47,1.26.63-2.07,2.22-9.21,1.65-13.19,1.9-3.7.23-13.21-2.07-13.82,3.16-6.42-4.15,3.15-5.1,6.59-8.22,1.1-.99,3.24-4.29,4.08-5.69,5.92-1.82,1.42,8.09,4.08,9.48.5.26,10,.55,11-1.26h-.01,0Z"/>
    </g>
    <g>
      <path class="st22" d="M101.68,19.42h245.02c15.99,1.86,31.66,16.41,34.24,32.56,2.34,14.64,2.56,83.16.63,98-1.49,11.36-11.9,14.6-18.22,4.42l-.63-98c-2.46-7.96-7.05-13.94-14.76-17.38-80.23-2.93-161.34-.44-241.89-1.26-10.9,2.05-18.25,9.7-20.42,20.55v319.92c4.91,35.21,63.17,16.04,86.39,21.18,8.62,1.91,8.71,16.45-.63,18.33-7.64,1.54-64.81.97-72.88-.63-14.76-2.93-28.59-18.51-31.1-33.19l-.63-328.13c2.81-18.3,16.47-33.21,34.87-36.36h.01Z"/>
      <g>
        <path class="st6" d="M121.15,249.56h146.39c12.49,3.29,11.28,14.39-.63,17.7H121.15c-9.8-3.54-10-14.27,0-17.7h0Z"/>
        <path class="st6" d="M232.99,292.55c8.26,1.41,38.96-4.25,41.15,6.64,1.2,5.96-2.27,8.99-7.23,11.06H120.53c-9.49-3.12-9.13-15.41,1.26-17.07,32.39-5.17,77.5,4.4,111.2-.63h0Z"/>
      </g>
      <path class="st6" d="M179.58,335.55c6.99,0,30.4-1.15,35.18,1.26,7,3.53,5.31,14.29-2.51,15.8-8.43,1.64-82.33,1.56-91.1,0-9.61-1.71-9.08-14.68-1.26-16.44,9.63-2.16,47.11-.63,59.69-.63h0Z"/>
      <g>
        <path class="st4" d="M377.8,184.44l86.7-1.26c4.02,1.39,8.74,1.03,11.31,4.11,0,2.49-11.76,3.86-14.13,4.74-20.53,7.64-28.17,19.39-33.61,40.15-.4,1.5-2.33,24.12-6.91,13.28-1.26-2.97-1.82-13.76-3.15-18.33-5.96-20.58-16.35-29.68-36.13-36.36-4.54-1.53-17.62-2.02-4.08-6.32h0Z"/>
        <path class="st0" d="M464.51,183.17l-86.7,1.26c39.61-12.59,30.58-20.18,43.35-52.8,1.12-2.87,3-5.31,5.02-1.26,2.17,4.34,3.35,17.24,5.66,23.39,6.38,17.03,16.22,23.76,32.67,29.4h0Z"/>
      </g>
      <g>
        <path class="st4" d="M369.95,315.95c3.62-.69,8.78,1.43,10.37,4.74,2.76,5.78,1.6,60.46-.63,68.28-3.76,13.24-31.14,39.65-41.46,24.66-8.19-11.89,8.24-14.46,14.13-18.65,20.55-14.61,6.06-53.08,11-73.02.4-1.63,5.01-5.7,6.59-6.01h0Z"/>
        <g>
          <path class="st4" d="M308.69,244.51l70.99-1.26c2.29.92,10.02,1.88,9.43,4.74-.22,1.03-16.5,5.36-19.79,7.27-7.52,4.35-13.71,13.1-16.65,21.18-1.24,3.42-4.12,20.69-5.97,21.18-3.74,1.01-4.44-12.04-5.34-14.86-5.63-17.74-11.68-25.34-29.21-31.93-5.14-1.93-16.32-1.31-3.46-6.32h0Z"/>
          <path class="st0" d="M379.69,243.24l-70.99,1.26c31.75-12.36,23.65-16.16,34.56-43.31,4.82-12,8.55,13.86,10.05,17.7,5.74,14.71,12.61,18.79,26.39,24.34h0Z"/>
        </g>
      </g>
      <g>
        <path class="st12" d="M344.5,89.6c-1.46,2.97-1.82,4.98-3.77,7.9-5.68,8.49-24.49,29.85-32.04,37.3-3.67,3.62-6.41,7.76-12.25,6.64-1.97-.37-23.49-21.37-24.19-23.07-2.65-6.47,1.42-10.24,6.28-13.59,7.18-.5,14.23,11.44,19.16,15.8h1.89c5.78-5.68,29.48-38.06,35.18-38.56,3.59-.32,9.09,3.82,9.74,7.59h0Z"/>
        <path class="st19" d="M278.53,104.78c-4.86,3.36-8.93,7.12-6.28,13.59.7,1.7,22.22,22.7,24.19,23.07,5.84,1.11,8.58-3.02,12.25-6.64,7.55-7.45,26.36-28.81,32.04-37.3,1.96-2.92,2.31-4.93,3.77-7.9.13.8.17,4.05,0,4.74-.63,2.53-29.37,35.8-33.3,39.83-5.99,6.14-9.3,11.97-18.54,6.64-1.31-.75-20.39-20.45-21.05-21.81-2.92-6.02.42-13.77,6.91-14.22h0Z"/>
      </g>
      <g>
        <path class="st4" d="M271,400.04c.65.46,3.22-.58,2.51,2.85-8.41,3.15-12.24,5.88-16.33,13.91-.77,1.51-1.86,12.18-5.66,7.59-1.21-1.46-2.26-9.59-5.02-13.28-3.98-5.31-8.83-4.83-11.94-7.27,1.74-4.95,13.28-3.08,18.22-3.16,6.06-.11,12.22.5,18.22-.63h0Z"/>
        <path class="st0" d="M271,400.04c-6,1.13-12.15.53-18.22.63.25-3.77.68-11.47,0-14.86-.45-2.25-.22-1.58-2.51-1.58.72-1.46.97-6.43,4.08-5.06.65.29,4.25,10.69,5.97,12.96,3,3.96,6.92,5.22,10.68,7.9h0Z"/>
        <path class="st0" d="M252.78,400.67c-4.95.09-16.48-1.79-18.22,3.16-1.26-.99-1.54-1.1-1.26-2.85,10.25-4,12.39-7.55,16.97-16.75,2.29,0,2.07-.66,2.51,1.58.68,3.39.25,11.09,0,14.86h0Z"/>
      </g>
      <g>
        <path class="st4" d="M392.26,295.72c-.69-5.17,12.91-3.68,16.97-3.79,5.19-.15,12.81,1.45,16.33-1.26,1.45.92,3.27.88,4.39,2.85-4.9,3.83-10.43,4.34-14.45,10.11-3.25,4.67-2.74,10.52-6.59,13.59-3.57-4.73-3.13-10.67-7.23-15.49-2.82-3.32-6.07-4.04-9.43-6.01h0Z"/>
        <path class="st0" d="M425.56,290.65c-3.53,2.72-11.14,1.12-16.33,1.26-.92-3.54,2.45-14.14-3.15-14.54.68-1.37.86-7.31,3.46-6.95,5.16,11.65,5.49,13.53,16.02,20.23h0Z"/>
        <path class="st0" d="M409.21,291.92c-4.05.11-17.65-1.37-16.97,3.79-7.31-4.29,1.43-4.15,5.97-7.59,3.51-2.66,5.9-6.86,7.85-10.75,5.58.4,2.22,11,3.15,14.54h0Z"/>
      </g>
      <g>
        <path class="st4" d="M206.91,453.77c1.07-.04,2.2-.39,2.51-1.58.69-2.58.04-13.22,0-16.75,3.75-.96,12.57,2.13,14.45-1.9,1.08.77,5.72,1.1,4.39,4.11-.29.66-9.05,3.79-11.94,7.59-3.35,4.4-2.98,10.04-6.59,13.59-2.77-.33-2.16-3.66-2.83-5.06h0Z"/>
        <path class="st4" d="M209.43,434.81v.63c.04,3.54.69,14.18,0,16.75-.32,1.19-1.45,1.53-2.51,1.58-5.85-12.3-4.74-8.38-14.45-15.17-.16-2.74-.35-1.88,1.57-2.53,4.34-1.45,10.76.07,15.39-1.26h0Z"/>
        <path class="st0" d="M223.88,433.54c-1.88,4.02-10.71.94-14.45,1.9v-.63c-.1-4.35,1.26-12.25-2.51-15.17.49-.98-.2-5.63,3.46-4.42.74.24,4.4,10.31,5.97,12.33,2.03,2.62,4.92,4.14,7.54,6.01h0v-.02Z"/>
        <path class="st0" d="M209.43,434.81c-4.64,1.34-11.05-.18-15.39,1.26-1.92.64-1.72-.22-1.57,2.53-.17-.12-1.2.22-1.57-.63-1.91-3.6,5.11-4.35,7.54-6.32,4.11-3.33,6.15-7.39,8.48-12.01,3.77,2.92,2.41,10.82,2.51,15.17h0Z"/>
      </g>
      <g>
        <path class="st4" d="M291.1,429.75c-.19-1.59-.12-2.63,1.57-3.16,4.02-1.26,18.94-.12,24.82-.63.2-.02,2.21,1.61,3.15-1.26.49.35,3.05.8,3.77,1.58,1.41,3.38-7.88,5.6-10.68,8.85-3.16,3.67-3.63,8.9-5.97,12.96-4.46,1.09-3.32-4.6-4.71-7.27-4.32-8.32-5.12-6.71-11.94-11.06h0,0Z"/>
        <path class="st0" d="M320.63,424.69c-.93,2.87-2.93,1.25-3.15,1.26-2.44-1.84-8.2.34-10.37-.63-2.86-1.28,1.75-12.81-3.46-12.64.76-1.46.11-4.81,2.83-5.69,4.96,8.98,5.73,11.68,14.13,17.7h.01Z"/>
        <path class="st0" d="M317.5,425.96c-5.88.51-20.8-.63-24.82.63-1.69.53-1.76,1.57-1.57,3.16-6.47-4.14,2.69-4.95,5.97-7.59,2.91-2.35,4.91-6.24,6.59-9.48,5.21-.17.59,11.37,3.46,12.64,2.16.97,7.94-1.21,10.37.63h0Z"/>
      </g>
      <g>
        <path class="st4" d="M252.78,474.64c5.78-7.49,22.81.28,30.15-4.42,6.82,4.97-3.62,5.51-7.54,9.8-2.39,2.62-5.27,12.66-5.97,12.96-3.59,1.57-4.92-8.48-6.59-11.06-2.87-4.44-6.96-4.91-10.05-7.27h0Z"/>
        <path class="st0" d="M280.42,469.59c-.73,1.85-11.14,1.61-11.62,1.26-1.69-1.2,1.31-12.85-4.08-10.75.38-.63,1.87-8.89,4.71-6.32.83.74,2.75,7.31,4.08,9.17,1.24,1.74,5.14,5.28,6.91,6.64h0,0Z"/>
        <path class="st0" d="M280.42,469.59c.15.12,2.34.51,2.51.63-7.35,4.7-24.39-3.06-30.15,4.42-.65-.5-2.08-1.13-1.89-2.21,6.69-3.64,9.8-5.71,13.82-12.33,5.4-2.1,2.39,9.54,4.08,10.75.49.35,10.89.58,11.62-1.26h0,0Z"/>
      </g>
      <g>
        <path class="st4" d="M279.79,363.99c1.39-4.93,11.5-3.07,15.71-3.16,3.44-.07,11.05,1.36,12.56-1.9,1.65,1.18,4.9,1.01,4.39,3.48-9.91,4.43-12.37,9.96-16.65,19.28-2.53.39-4.41-8.81-5.97-11.06-3.24-4.68-7.42-4.41-10.05-6.64h0Z"/>
        <path class="st0" d="M308.07,358.94c-1.51,3.26-9.13,1.82-12.56,1.9-.84-3.04,1.3-13.28-3.15-13.28,5.45-10.08,5.09,1.23,9.43,6.64,1.61,2.01,4.22,3.27,6.28,4.74Z"/>
        <path class="st0" d="M295.5,360.84c-4.2.09-14.33-1.77-15.71,3.16-1.19-1.01-1.57-1.06-1.26-2.85,8.8-3.34,9.74-6.05,13.82-13.59,4.44,0,2.3,10.24,3.15,13.28Z"/>
      </g>
      <path class="st0" d="M178.01,470.21c-.67,2.93-3.65,1.75-6.28,1.9-3.65.2-6.47-.39-10.05,1.26,3.66-3.89,7.07-6.04,9.11-11.38,1.32-.39,5.76,6.49,7.23,8.22h0Z"/>
      <path class="st4" d="M171.73,472.11v9.17c1.25-.2,2.48-1.81,3.77-2.85-5.7,12.55-4.37,4.15-7.54.32-2.03-2.45-4.49-3.02-6.28-5.37,3.58-1.65,6.4-1.07,10.05-1.26h0Z"/>
      <path class="st18" d="M175.5,478.43c-1.3,1.03-2.53,2.65-3.77,2.85v-9.17c2.63-.15,5.61,1.03,6.28-1.9.93,1.1,3.59,1.25,3.15,3.48-2.11,1.23-3.95,3.38-5.66,4.74h0Z"/>
      <g>
        <g>
          <path class="st20" d="M211.93,100.98c9.02,2.21,7.38,17.88,7.54,24.97,2.32-2.03,2.77-7.5,3.15-10.43,4.86,4.94,5,18.16.31,22.76-.82.8-2.89.12-4.08,1.58-2.49,3.06-3.75,11.26-9.43,17.38-7.06,4.54-9.49,6.95-18.22,6.95v-57.22c-3.59,0-7.61-.29-11-1.58-5.93-2.26-5.92-7.59-12.88-2.53,1.45-2.2,3.44-3.73,5.66-5.06,11.81,12.05,28.48.6,38.95,3.16h0Z"/>
          <path class="st23" d="M191.21,164.21c-6.67,0-8.44-1.02-14.45-3.79-9.73-7.79-6.99-14.04-11.31-19.92-.77-1.04-5.16-1.56-6.91-5.69-1.6-3.77-3.12-17.18,3.15-17.38.38,1.88.79,6.23,2.51,7.27-.17-7.61-1.2-15.24,3.15-21.81,6.96-5.06,6.95.27,12.88,2.53,3.39,1.29,7.41,1.58,11,1.58v57.22h0Z"/>
          <path class="st16" d="M209.43,157.25c-10.21,11.01-20.56,12.86-32.67,3.16,6.01,2.77,7.78,3.79,14.45,3.79,8.73,0,11.16-2.41,18.22-6.95h0Z"/>
        </g>
        <g>
          <path class="st24" d="M222.62,115.52c-.37,2.93-.83,8.4-3.15,10.43-.16-7.09,1.48-22.76-7.54-24.97,1.21-1.68.01-2.13,2.51-2.85.26-4.7-33.53,7.72-40.84-8.22-1.18-2.58-.68-9.33-2.51-8.22-.26.63-1.82,2.62-1.89,2.85-.4.05-.94-.09-1.26,0,6.47-16.84,39.59-11.74,49-.32,6.93,8.41,6.96,20.96,5.66,31.29h.01Z"/>
          <path class="st11" d="M169.22,84.55c-1.25,4.1.87,10.32,3.77,13.28-2.21,1.33-4.2,2.86-5.66,5.06-4.33,6.57-3.31,14.21-3.15,21.81-1.72-1.05-2.13-5.39-2.51-7.27-1.91-9.39-6.05-29.21,6.28-32.88.31-.09.85.05,1.26,0h0Z"/>
          <path class="st1" d="M211.93,100.98c-10.47-2.57-27.15,8.9-38.95-3.16-2.89-2.96-5.02-9.18-3.77-13.28.07-.23,1.63-2.21,1.89-2.85,1.84-1.11,1.33,5.64,2.51,8.22,7.31,15.94,41.1,3.51,40.84,8.22-2.5.72-1.3,1.17-2.51,2.85h0Z"/>
        </g>
        <g>
          <path class="st8" d="M157.91,176.22c.3,6.04-1.06,16.86,6.91,15.17-.53.78-.43,1.37-.63,1.9-.03.07-1.28.54-1.26.95.13,2.25,20.49,18.09,23.56,21.18,1.39,1.4,2.65,2.05,2.2,4.42-14.35-.06-49.58,2.58-61.26,0-9.77-2.15-4.74-23.72-.94-30.03,5.24-8.67,19.55-15.55,28.9-18.65,2.12,1.7,1.79,2.67,2.51,5.06h0Z"/>
          <path class="st2" d="M256.55,193.29c.83,2.6.82,6.01,1.89,8.53l.63,16.12c-.96,1.16-2.11,1.66-3.46,1.9-14.37,2.51-45-.06-61.26,0,2.22-4.75,27.46-23.63,27.02-26.24-.36-1.01-1.83-.85-1.89-.95-.38-.66-.58-1.81-.63-1.9,1.59-1.64,5.85,1.53,6.91-.32.97-1.69,1.61-14.47,1.89-17.38.17-.65-.46-1.84.63-1.9,11.03,3.89,24.42,10.11,28.28,22.13h-.01Z"/>
          <path class="st13" d="M168.59,170.53c1.96,3.91,3.7,8.05,5.66,12.01.4.82.73,2.11,1.26,3.16-1.83-1.39-3.59-.72-5.66.63-1.88-2.05-7.78.81-9.11,0-.58-.35-2.37-8.61-2.83-10.11-.73-2.38-.4-3.35-2.51-5.06,4.05-1.34,8.25-2.27,12.25-3.79.39,1.18.34,1.95.94,3.16h0Z"/>
          <path class="st3" d="M228.27,171.16c-1.08.06-.46,1.25-.63,1.9-.41,1.64-3.48,12.93-4.08,13.28s-7.25-.96-8.48-1.26c-1.75-.44-3.46-.96-5.02-1.9,1.69-3.36,2.89-6.71,4.39-10.11.42-.96,2.08-2.33,1.89-3.79.11-.05-.36-1.75,1.57-1.9.96-.07,8.72,3.21,10.37,3.79h0Z"/>
          <path class="st9" d="M194.35,219.85c-1.88,0-3.78,0-5.66,0,.46-2.37-.8-3.03-2.2-4.42-3.08-3.09-23.43-18.93-23.56-21.18-.02-.41,1.23-.88,1.26-.95,4.9,3,24.69,24.85,28.59,24.02,1.99-.42,23.21-21.78,26.71-24.66.06.1,1.53-.06,1.89.95.44,2.6-24.79,21.49-27.02,26.24h0Z"/>
          <path class="st14" d="M189.32,178.75c-1.58,1.22-3.54,5.29-5.02,6.95-1.02-.85-10.49-7.72-10.05-3.16-1.95-3.96-3.69-8.1-5.66-12.01l20.73,8.22h0Z"/>
          <path class="st3" d="M194.35,178.12c1.69,1.14,3.6,5.26,5.02,6.95-1.38,1.03-2.85,4.58-4.39,5.06-1.44.45-4.57-.32-6.28,0-.17-.92-3.46-3.65-4.39-4.42,1.49-1.67,3.44-5.74,5.02-6.95,1.18-.91,2.22-1.2,3.46-1.9.41.6,1,.88,1.57,1.26h-.01Z"/>
          <path class="st14" d="M216.34,169.27c.2,1.46-1.46,2.83-1.89,3.79-4.69,4.46-10.37,8.51-15.08,12.01-1.42-1.69-3.33-5.81-5.02-6.95,8.37-.72,14.7-5.43,21.99-8.85h0Z"/>
          <path class="st13" d="M259.06,217.95l-.63-16.12c-1.07-2.53-1.06-5.93-1.89-8.53,4.19,3.49,5.15,21.46,2.51,24.66h0Z"/>
          <path class="st5" d="M215.08,185.07c-.36,2.51,2.78,4.19,3.77,5.69.06.08.25,1.23.63,1.9-3.49,2.87-24.71,24.24-26.71,24.66-3.89.82-23.68-21.02-28.59-24.02.2-.53.11-1.12.63-1.9.2-.3,4.73-4.86,5.02-5.06,2.06-1.35,3.83-2.02,5.66-.63,3.3,6.63,6.39,13.54,10.68,19.6.17,1.34,4.97,10.28,5.97,10.11,2.18-3.26,3.96-6.76,5.97-10.11,4.26-7.12,8.21-14.7,11.94-22.13,1.56.94,3.28,1.46,5.02,1.9h0-.01Z"/>
          <path class="st5" d="M169.85,186.34c-.3.19-4.83,4.77-5.02,5.06-7.96,1.69-6.61-9.13-6.91-15.17.46,1.51,2.26,9.76,2.83,10.11,1.33.81,7.23-2.05,9.11,0h0,0Z"/>
          <path class="st2" d="M218.85,190.76c-.99-1.51-4.12-3.18-3.77-5.69,1.23.31,7.9,1.59,8.48,1.26s3.67-11.63,4.08-13.28c-.28,2.92-.92,15.7-1.89,17.38-1.06,1.85-5.32-1.32-6.91.32h0Z"/>
          <path class="st7" d="M184.3,185.7c.94.78,4.22,3.51,4.39,4.42.41,2.16-2.98,11.55-2.51,15.17-4.3-6.06-7.38-12.98-10.68-19.6-.53-1.06-.85-2.35-1.26-3.16-.44-4.56,9.02,2.31,10.05,3.16h.01Z"/>
          <path class="st7" d="M210.06,183.17c-3.72,7.43-7.67,15-11.94,22.13l-3.15-15.17c1.55-.47,3.01-4.02,4.39-5.06,4.71-3.51,10.39-7.54,15.08-12.01-1.5,3.4-2.71,6.76-4.39,10.11h.01Z"/>
          <path class="st21" d="M194.98,190.13l3.15,15.17c-2.01,3.36-3.79,6.86-5.97,10.11-.99.17-5.79-8.78-5.97-10.11-.47-3.63,2.92-13.01,2.51-15.17,1.72-.32,4.84.45,6.28,0h0Z"/>
        </g>
      </g>
    </g>
  </g>
</svg>